# xmcd CD database file
#
# Track frame offsets:
#	150
#	33405
#	57803
#	71228
#	94845
#	108740
#	143710
#	160855
#	177425
#	201093
#	225845
#	249443
#	265825
#	279568
#
# Disc length: 4368 seconds
#
# Revision: 0
# Processed by: cddbd v1.5.1PL2 Copyright (c) Steve Scherf et al.
# Submitted via: CDex 1.51
#
DISCID=c4110e0e
DTITLE=Various Artist - night
DYEAR=2002
DGENRE=Jazz
TTITLE0=You and the Night and the Music
TTITLE1='Round About Midnight
TTITLE2=Old Devil Moon
TTITLE3=When You Wish Upon A Star
TTITLE4=Teach Me Tonight
TTITLE5=How High the Moon
TTITLE6=Moon River
TTITLE7=Midnight Sun
TTITLE8=Star Eyes
TTITLE9=Night and Day
TTITLE10=The Way You Look Tonight
TTITLE11=Stairway to the Stars
TTITLE12=I Could Have Dance Tonight
TTITLE13=Stardust
EXTD=YEAR: 2002
EXTT0=
EXTT1=
EXTT2=
EXTT3=
EXTT4=
EXTT5=
EXTT6=
EXTT7=
EXTT8=
EXTT9=
EXTT10=
EXTT11=
EXTT12=
EXTT13=
PLAYORDER=
